<?xml version="1.0" encoding="UTF-8" standalone="no"?>
<svg
   xmlns:dc="http://purl.org/dc/elements/1.1/"
   xmlns:cc="http://creativecommons.org/ns#"
   xmlns:rdf="http://www.w3.org/1999/02/22-rdf-syntax-ns#"
   xmlns:svg="http://www.w3.org/2000/svg"
   xmlns="http://www.w3.org/2000/svg"
   viewBox="0 0 64 64"
   version="1.1"
   id="svg4522"
   height="64"
   width="64">
  <defs
     id="defs4524" />
  <metadata
     id="metadata4527">
    <rdf:RDF>
      <cc:Work
         rdf:about="">
        <dc:format>image/svg+xml</dc:format>
        <dc:type
           rdf:resource="http://purl.org/dc/dcmitype/StillImage" />
        <dc:title></dc:title>
      </cc:Work>
    </rdf:RDF>
  </metadata>
  <g
     id="layer1">
    <path
       d="M 27.590515,30.201631 C 27.957538,28.067596 27.686825,25.91316 27.479643,23.778658 27.041587,20.410792 26.292332,17.05573 25.010532,13.790033 24.152344,11.603601 23.763075,10.993436 22.664967,8.9031331 21.643409,7.1230765 20.606387,5.3365075 19.301438,3.6448525 19.121273,3.4117036 18.258286,2.3233642 17.782368,2.0707145 17.659799,2.0055914 17.474411,2.053835 17.320629,2.0470879 c 1.371474,-0.3942261 2.64117,-1.0591543 4.114509,-1.182712 0.440578,-0.036783 -0.328955,0.5749753 -0.436382,0.8742207 -0.169109,0.4704846 -0.283229,0.9501768 -0.392369,1.4291579 -0.504871,2.2134235 -0.704439,4.4532647 -0.956076,6.6851086 -0.478597,4.1370399 -0.382234,8.3070529 -1.096719,12.4317239 -0.108304,0.626294 -0.269887,1.247622 -0.404202,1.871457 -0.720526,2.538751 -2.240104,4.929169 -5.098716,6.649411 -0.449903,0.270941 -0.955944,0.49339 -1.433918,0.740107 C 9.0261288,32.519624 4.8228218,34.697876 1.6146195,33.754836 1.3424299,33.674856 1.1122863,33.537551 0.86110384,33.428896 0.45350144,33.102617 0.13805953,32.94226 0.03236995,32.487399 -0.27461563,31.164091 1.6774451,29.667983 2.690307,28.718398 7.4548704,24.692719 13.189543,21.291564 18.823328,17.876233 c 5.498335,-3.388681 11.3773,-6.459993 17.626309,-9.1434904 0.50487,-0.210204 1.008942,-0.4207124 1.513384,-0.6310523 0,0 4.036978,-0.9773996 4.036978,-0.9773996 l 0,0 c -0.601304,0.232136 -1.202726,0.4644414 -1.804175,0.6966445 -6.60718,2.6664238 -12.802405,5.7585848 -18.490945,9.3129708 -5.341381,3.273717 -10.787764,6.551192 -15.1182546,10.5089 -0.7568621,0.769021 -2.4396624,2.256512 -2.2529345,3.298869 0.067638,0.367118 0.3186936,0.499253 0.6376143,0.76452 0.8784898,0.361607 1.4129503,0.483502 2.4751119,0.42045 0.4084479,-0.02364 1.5001336,-0.351483 1.2119128,-0.148466 -0.7103634,0.500348 -1.7712537,0.687677 -2.5786881,1.110987 -0.4397286,0.230451 0.9781959,-0.352188 1.4673266,-0.528283 1.4021836,-0.659725 1.7933278,-0.768537 2.9871596,-1.648733 2.140707,-1.578257 3.330991,-3.573008 4.082027,-5.652383 0.188613,-0.635036 0.409318,-1.265976 0.566596,-1.90516 1.015465,-4.120176 1.08018,-8.321303 1.320492,-12.486146 0.111592,-2.6099095 0.146991,-5.2251487 0.313844,-7.8337075 0.01633,-0.289496 -0.232532,-0.6804488 0.08616,-0.8672377 1.38012,-0.8094731 3.107805,-1.2783325 4.661732,-1.9175168 0.1116,0.093124 0.250396,0.1727528 0.334067,0.2790362 0.256251,0.3255966 0.929058,1.596135 1.038041,1.7979727 0.979945,1.8151476 1.909696,3.6429815 2.822482,5.474931 0.981904,2.0881433 1.357467,2.8067181 2.210491,4.9578581 1.282831,3.23505 2.205696,6.528983 3.027185,9.833782 0.481175,2.028259 0.93648,4.058304 1.177722,6.108345 0,0 -4.585596,1.50093 -4.585596,1.50093 z"
       id="path4368-2"
       style="color:#000000;clip-rule:nonzero;display:inline;overflow:visible;visibility:visible;opacity:1;isolation:auto;mix-blend-mode:normal;color-interpolation:sRGB;color-interpolation-filters:linearRGB;solid-color:#000000;solid-opacity:1;fill:#000000;fill-opacity:1;fill-rule:nonzero;stroke-width:1;stroke-linecap:butt;stroke-linejoin:miter;stroke-miterlimit:4;stroke-dasharray:none;stroke-dashoffset:0;stroke-opacity:1;color-rendering:auto;image-rendering:auto;shape-rendering:auto;text-rendering:auto;enable-background:accumulate" />
    <path
       d="m 36.159484,30.201194 c -0.367023,-2.134021 -0.09631,-4.288472 0.110872,-6.422974 0.438056,-3.367853 1.187311,-6.722927 2.469111,-9.988622 0.858188,-2.18643 1.247457,-2.796597 2.345565,-4.8868983 1.021558,-1.7800564 2.05858,-3.5666254 3.363529,-5.2582804 0.180165,-0.233149 1.043152,-1.3214883 1.51907,-1.5741382 0.122569,-0.065122 0.307957,-0.016882 0.461739,-0.023625 -1.371474,-0.3942266 -2.64117,-1.05915492 -4.114509,-1.18271242 -0.440578,-0.036784 0.328955,0.57497542 0.436382,0.87422072 0.169109,0.4704839 0.283229,0.9501764 0.392369,1.4291574 0.504871,2.2134235 0.704439,4.4532648 0.956076,6.6851087 0.478597,4.1370465 0.382234,8.3070525 1.096719,12.4317205 0.108304,0.626293 0.269887,1.247626 0.404202,1.871456 0.720526,2.538751 2.240104,4.92918 5.098716,6.649416 0.449903,0.270939 0.955944,0.493388 1.433918,0.740101 2.590627,0.974059 6.793934,3.152322 10.002137,2.209272 0.272189,-0.07996 0.502333,-0.217286 0.753515,-0.325932 0.407603,-0.32627 0.723044,-0.486644 0.828734,-0.9415 C 64.024615,31.163653 62.072554,29.667559 61.059692,28.71796 56.295129,24.692295 50.560456,21.291127 44.926671,17.875795 39.428336,14.487117 33.549371,11.415807 27.300362,8.7323091 26.795492,8.5221051 26.29142,8.311596 25.786978,8.1012571 c 0,0 -4.036978,-0.9773996 -4.036978,-0.9773996 l 0,0 c 0.601304,0.232136 1.202726,0.4644412 1.804175,0.6966445 6.60718,2.666423 12.802405,5.758592 18.490945,9.312969 5.341381,3.273716 10.787764,6.551189 15.118255,10.508898 0.756862,0.76902 2.439662,2.256511 2.252934,3.298869 -0.06764,0.367136 -0.318693,0.499252 -0.637614,0.764519 -0.87849,0.361608 -1.41295,0.483505 -2.475112,0.42045 -0.408448,-0.02364 -1.500134,-0.351482 -1.211913,-0.148466 0.710364,0.500349 1.771254,0.687677 2.578688,1.110988 0.439729,0.230451 -0.978196,-0.352189 -1.467326,-0.528284 -1.402184,-0.659724 -1.793328,-0.768536 -2.98716,-1.648733 -2.140707,-1.578257 -3.330991,-3.573008 -4.082027,-5.652382 -0.188613,-0.635022 -0.409318,-1.265975 -0.566596,-1.905159 -1.015465,-4.120175 -1.08018,-8.321293 -1.320492,-12.486144 -0.111592,-2.6099087 -0.146991,-5.225148 -0.313844,-7.8337077 -0.01633,-0.289495 0.232532,-0.6804478 -0.08616,-0.8672369 -1.38012,-0.809473 -3.107805,-1.27833242 -4.661732,-1.91751662 -0.1116,0.093124 -0.250396,0.1727527 -0.334067,0.2790361 -0.256251,0.3255966 -0.929058,1.59613502 -1.038041,1.79797262 -0.979945,1.8151478 -1.909696,3.6429816 -2.822482,5.4749313 -0.981904,2.0881427 -1.357467,2.8067182 -2.210491,4.9578562 -1.282831,3.235057 -2.205696,6.528992 -3.027185,9.833791 -0.481175,2.028247 -0.93648,4.058294 -1.177722,6.108333 0,0 4.585596,1.50093 4.585596,1.50093 z"
       id="path4368-2-0"
       style="color:#000000;clip-rule:nonzero;display:inline;overflow:visible;visibility:visible;opacity:1;isolation:auto;mix-blend-mode:normal;color-interpolation:sRGB;color-interpolation-filters:linearRGB;solid-color:#000000;solid-opacity:1;fill:#000000;fill-opacity:1;fill-rule:nonzero;stroke-width:1;stroke-linecap:butt;stroke-linejoin:miter;stroke-miterlimit:4;stroke-dasharray:none;stroke-dashoffset:0;stroke-opacity:1;color-rendering:auto;image-rendering:auto;shape-rendering:auto;text-rendering:auto;enable-background:accumulate" />
    <path
       d="m 36.159486,34.047935 c -0.367023,2.134035 -0.09631,4.288471 0.110872,6.422973 0.438056,3.367866 1.187311,6.722928 2.469111,9.988625 0.858188,2.186432 1.247457,2.796597 2.345565,4.8869 1.021558,1.780056 2.05858,3.566625 3.363529,5.25828 0.180165,0.233149 1.043152,1.321488 1.51907,1.574138 0.122569,0.06512 0.307957,0.01688 0.461739,0.02363 -1.371474,0.394226 -2.64117,1.059154 -4.114509,1.182712 -0.440578,0.03678 0.328955,-0.574976 0.436382,-0.874221 0.169109,-0.470485 0.283229,-0.950177 0.392369,-1.429158 0.504871,-2.213423 0.704439,-4.453265 0.956076,-6.685108 0.478597,-4.13704 0.382234,-8.307053 1.096719,-12.431724 0.108304,-0.626294 0.269887,-1.247622 0.404202,-1.871457 0.720526,-2.538751 2.240104,-4.929169 5.098716,-6.649411 0.449903,-0.270941 0.955944,-0.49339 1.433918,-0.740107 2.590627,-0.974062 6.793934,-3.152314 10.002136,-2.209274 0.27219,0.07998 0.502333,0.217285 0.753516,0.32594 0.407602,0.326276 0.723044,0.486633 0.828734,0.941494 0.306985,1.323308 -1.645075,2.819416 -2.657937,3.769001 -4.764564,4.025679 -10.499236,7.426834 -16.133021,10.842165 -5.498335,3.388681 -11.3773,6.459993 -17.626309,9.14349 -0.50487,0.210204 -1.008942,0.420712 -1.513384,0.631052 0,0 -4.036978,0.9774 -4.036978,0.9774 l 0,0 c 0.601304,-0.232136 1.202726,-0.464441 1.804175,-0.696645 6.60718,-2.666423 12.802405,-5.758584 18.490945,-9.31297 5.341381,-3.273717 10.787764,-6.551192 15.118254,-10.5089 0.756862,-0.769021 2.439663,-2.256512 2.252935,-3.298869 -0.06764,-0.367118 -0.318694,-0.499253 -0.637615,-0.76452 -0.878489,-0.361607 -1.41295,-0.483502 -2.475111,-0.42045 -0.408448,0.02364 -1.500134,0.351483 -1.211913,0.148466 0.710363,-0.500348 1.771253,-0.687677 2.578688,-1.110987 0.439728,-0.230451 -0.978196,0.352188 -1.467327,0.528283 -1.402183,0.659725 -1.793328,0.768537 -2.987159,1.648733 -2.140707,1.578257 -3.330991,3.573008 -4.082027,5.652383 -0.188613,0.635036 -0.409318,1.265976 -0.566596,1.90516 -1.015465,4.120176 -1.08018,8.321303 -1.320492,12.486146 -0.111592,2.609909 -0.146991,5.225148 -0.313844,7.833707 -0.01633,0.289496 0.232532,0.680449 -0.08616,0.867238 -1.38012,0.809473 -3.107805,1.278332 -4.661732,1.917517 -0.1116,-0.09312 -0.250396,-0.172753 -0.334067,-0.279037 -0.256251,-0.325596 -0.929058,-1.596135 -1.038041,-1.797972 -0.979945,-1.815148 -1.909696,-3.642982 -2.822482,-5.474931 -0.981904,-2.088144 -1.357467,-2.806718 -2.210491,-4.957858 -1.282831,-3.23505 -2.205696,-6.528983 -3.027185,-9.833782 -0.481175,-2.028259 -0.93648,-4.058304 -1.177722,-6.108345 0,0 4.585596,-1.50093 4.585596,-1.50093 z"
       id="path4368-2-3"
       style="color:#000000;clip-rule:nonzero;display:inline;overflow:visible;visibility:visible;opacity:1;isolation:auto;mix-blend-mode:normal;color-interpolation:sRGB;color-interpolation-filters:linearRGB;solid-color:#000000;solid-opacity:1;fill:#000000;fill-opacity:1;fill-rule:nonzero;stroke-width:1;stroke-linecap:butt;stroke-linejoin:miter;stroke-miterlimit:4;stroke-dasharray:none;stroke-dashoffset:0;stroke-opacity:1;color-rendering:auto;image-rendering:auto;shape-rendering:auto;text-rendering:auto;enable-background:accumulate" />
    <path
       d="m 27.590517,34.048372 c 0.367023,2.134021 0.09631,4.288472 -0.110872,6.422974 -0.438056,3.367853 -1.187311,6.722927 -2.469111,9.988622 -0.858188,2.18643 -1.247457,2.796597 -2.345565,4.886898 -1.021558,1.780056 -2.05858,3.566625 -3.363529,5.25828 -0.180165,0.233149 -1.043152,1.321489 -1.51907,1.574139 -0.122569,0.06512 -0.307957,0.01688 -0.461739,0.02363 1.371474,0.394226 2.64117,1.059154 4.114509,1.182712 0.440578,0.03678 -0.328955,-0.574975 -0.436382,-0.874221 C 20.829649,62.040922 20.715529,61.56123 20.606389,61.082249 20.101518,58.868825 19.90195,56.628984 19.650313,54.39714 19.171716,50.260094 19.268079,46.090088 18.553594,41.96542 18.44529,41.339127 18.283707,40.717794 18.149392,40.093964 17.428866,37.555213 15.909288,35.164784 13.050676,33.444548 12.600773,33.173609 12.094732,32.95116 11.616758,32.704447 9.0261311,31.730388 4.8228241,29.552125 1.6146211,30.495175 c -0.272189,0.07996 -0.502333,0.217286 -0.75351504,0.325932 -0.407603,0.32627 -0.723044,0.486644 -0.828734,0.9415 -0.306991,1.323311 1.64507504,2.819405 2.65793704,3.769004 4.764563,4.02566 10.4992359,7.426828 16.1330209,10.84216 5.498335,3.388678 11.3773,6.459988 17.626309,9.143486 0.50487,0.210204 1.008942,0.420713 1.513384,0.631052 0,0 4.036978,0.977399 4.036978,0.977399 l 0,0 C 41.398697,56.893572 40.797275,56.661267 40.195826,56.429064 33.588646,53.762641 27.393421,50.670472 21.704881,47.116095 16.3635,43.842379 10.917117,40.564906 6.5866261,36.607197 c -0.756862,-0.76902 -2.439662,-2.256511 -2.252934,-3.298869 0.06764,-0.367136 0.318693,-0.499252 0.637614,-0.764519 0.87849,-0.361608 1.41295,-0.483505 2.475112,-0.42045 0.408448,0.02364 1.500134,0.351482 1.211913,0.148466 -0.710364,-0.500349 -1.771254,-0.687677 -2.578688,-1.110988 -0.439729,-0.230451 0.978196,0.352189 1.467326,0.528284 1.402184,0.659724 1.793328,0.768536 2.9871599,1.648733 2.140707,1.578257 3.330991,3.573008 4.082027,5.652382 0.188613,0.635022 0.409318,1.265975 0.566596,1.905159 1.015465,4.120175 1.08018,8.321293 1.320492,12.486144 0.111592,2.609908 0.146991,5.225148 0.313844,7.833707 0.01633,0.289495 -0.232532,0.680448 0.08616,0.867237 1.38012,0.809473 3.107805,1.278333 4.661732,1.917517 0.1116,-0.09312 0.250396,-0.172753 0.334067,-0.279036 0.256251,-0.325597 0.929058,-1.596135 1.038041,-1.797973 0.979945,-1.815148 1.909696,-3.642981 2.822482,-5.474931 0.981904,-2.088143 1.357467,-2.806718 2.210491,-4.957856 1.282831,-3.235057 2.205696,-6.528992 3.027185,-9.833791 0.481175,-2.028247 0.93648,-4.058294 1.177722,-6.108333 0,0 -4.585596,-1.50093 -4.585596,-1.50093 z"
       id="path4368-2-0-3"
       style="color:#000000;clip-rule:nonzero;display:inline;overflow:visible;visibility:visible;opacity:1;isolation:auto;mix-blend-mode:normal;color-interpolation:sRGB;color-interpolation-filters:linearRGB;solid-color:#000000;solid-opacity:1;fill:#000000;fill-opacity:1;fill-rule:nonzero;stroke-width:1;stroke-linecap:butt;stroke-linejoin:miter;stroke-miterlimit:4;stroke-dasharray:none;stroke-dashoffset:0;stroke-opacity:1;color-rendering:auto;image-rendering:auto;shape-rendering:auto;text-rendering:auto;enable-background:accumulate" />
    <path
       d="m 18.591112,37.253016 c -0.144492,0.734859 0.163005,1.485209 0.606936,2.143499 0.164553,0.243462 0.370944,0.470916 0.555597,0.706374 0.245745,0.229463 0.468041,0.473595 0.737809,0.688754 1.08728,0.865932 2.562636,1.504836 4.198522,1.635941 0.390957,0.03134 0.786834,0.003 1.179933,0.003 1.032371,-0.160381 1.453487,-0.166772 2.393653,-0.557558 0.165428,-0.06878 -0.658388,0.220942 -0.554022,0.106515 0.261833,-0.28546 0.741867,-0.431385 1.074888,-0.675546 0.859836,-0.630079 1.013476,-0.898071 1.655658,-1.639958 0.784317,-1.121326 1.179362,-2.355374 0.799583,-3.602263 -0.22566,-0.73985 -0.440733,-0.910059 -0.940582,-1.559891 -0.232176,-0.200553 -0.443138,-0.41486 -0.696048,-0.6019 -0.659131,-0.486954 -1.698743,-1.051663 -2.718342,-0.968642 -0.172646,0.01521 -0.329981,0.07608 -0.495432,0.114122 0.552338,-0.171945 1.056036,-0.483789 1.65649,-0.516048 0.248797,-0.01217 -0.301069,0.287894 -0.408649,0.449004 -0.146051,0.219421 -0.262446,0.450405 -0.348484,0.685711 -0.399836,1.091746 -0.31629,2.209722 -0.281822,3.324717 0.269793,3.192637 1.203791,6.329581 2.045519,9.463209 0.616571,2.190761 1.166132,4.394454 1.312708,6.630986 0.03237,0.451807 0.03237,0.904369 0.0398,1.356575 -0.03237,2.199685 -0.42951,4.433962 -1.665274,6.467577 -0.186168,0.306297 -0.424725,0.594801 -0.637471,0.892225 -0.22569,0.22976 -0.419878,0.47746 -0.677608,0.689725 -0.219204,0.18108 -0.455224,0.362362 -0.744232,0.483304 -1.4909,0.623597 -2.224632,1.079295 -3.728838,1.022816 -0.828696,-0.03106 -1.280146,-0.18047 -2.063738,-0.365072 -1.373387,-0.431904 -2.763367,-0.921845 -3.886567,-1.650312 -0.656704,-0.426021 -0.790783,-0.605329 -1.312725,-1.107105 -0.794031,-0.960617 -1.265775,-2.093625 -0.810333,-3.203594 0.08027,-0.193861 0.22167,-0.37165 0.333184,-0.557442 0.163935,-0.158852 0.295453,-0.337619 0.492152,-0.476239 0.209624,-0.148209 0.451209,-0.27785 0.712954,-0.374535 1.670644,-0.616079 2.30577,-1.076585 3.90899,-0.931124 1.113949,0.101038 1.594852,0.320154 2.637347,0.644779 2.478621,0.971754 4.59955,2.327864 6.98065,3.407073 1.955305,0.886227 2.049982,0.855853 4.133775,1.534267 2.075264,0.565009 4.232606,0.806496 6.447885,0.747878 1.555448,-0.04112 2.646913,-0.205414 4.175023,-0.385768 0,0 -1.303194,0.656835 -1.303194,0.656835 l 0,0 c -1.514418,0.168897 -2.625392,0.328582 -4.16634,0.356062 -2.211297,0.03957 -4.358558,-0.229459 -6.415824,-0.815785 -0.691237,-0.234326 -1.397804,-0.446505 -2.073403,-0.703174 -3.235142,-1.229082 -6.020428,-2.997047 -9.367154,-4.083889 -1.121412,-0.279679 -1.605624,-0.471983 -2.776402,-0.5088 -0.372554,-0.01219 -1.06065,0.331223 -1.115667,0.06667 -0.06422,-0.295809 0.709744,-0.31994 1.021625,-0.518611 0.407066,-0.259286 -1.824393,0.82387 -1.233817,0.766723 -0.122876,0.175592 -0.276005,0.341732 -0.367704,0.526914 -0.522655,1.060029 -0.08028,2.173385 0.674398,3.10687 0.189564,0.187466 0.361282,0.384462 0.567604,0.562551 1.174822,1.01463 2.813212,1.673981 4.511878,2.132088 0.802842,0.160682 1.235745,0.292461 2.07334,0.289413 0.318784,-0.0019 0.975946,-0.312907 0.949724,-0.08486 -0.03237,0.283935 -0.596561,0.480438 -0.994165,0.472165 -0.771567,-0.01519 2.897461,-1.029511 1.636193,-1.175466 0.248185,-0.302195 0.526728,-0.592799 0.745105,-0.906528 1.394305,-2.001014 1.8105,-4.244639 1.807263,-6.456855 -0.02449,-0.447753 -0.03237,-0.896 -0.06407,-1.34327 -0.176566,-2.240335 -0.672762,-4.461009 -1.144044,-6.67639 -0.734608,-3.139805 -1.666662,-6.257059 -2.222258,-9.416951 -0.15495,-1.082249 -0.341184,-2.156555 -0.128423,-3.243188 0.02449,-0.125687 0.254397,-1.016848 0.513015,-1.159517 0.771544,-0.425084 1.671475,-0.713982 2.507117,-1.070958 0.171079,-0.01522 0.340436,-0.05509 0.513015,-0.04961 0.98508,0.03256 1.979234,0.671407 2.582396,1.171386 0.244205,0.202074 0.448014,0.426758 0.671991,0.640152 0.505031,0.678437 0.718584,0.852391 0.94712,1.619541 0.382164,1.284869 -0.02449,2.554189 -0.822657,3.71261 -0.639059,0.762584 -0.781189,1.023909 -1.637748,1.678212 -1.211597,0.925856 -2.173228,1.229513 -3.926046,1.897147 -0.392556,0.149424 -0.808834,0.268417 -1.234348,0.359563 -0.409446,0.08764 -0.839385,0.116252 -1.259048,0.174378 -0.400654,-0.0091 -0.805366,0.0091 -1.202293,-0.03134 -2.118578,-0.218812 -3.793963,-1.23134 -5.041579,-2.415751 -0.211793,-0.231897 -0.438366,-0.457495 -0.635065,-0.696057 -0.523452,-0.634036 -0.926073,-1.330398 -1.059448,-2.064375 0,0 2.355323,-0.794476 2.355323,-0.794476 z"
       id="path3553-2-5-0"
       style="fill:#550000;fill-opacity:1;fill-rule:nonzero;stroke:none;stroke-width:1px;stroke-linecap:butt;stroke-linejoin:miter;stroke-opacity:1" />
    <path
       d="m 45.237649,37.253017 c 0.144492,0.734859 -0.163005,1.485209 -0.606936,2.143499 -0.164553,0.243462 -0.370944,0.470916 -0.555597,0.706374 -0.245745,0.229463 -0.468041,0.473595 -0.737809,0.688754 -1.08728,0.865932 -2.562636,1.504835 -4.198522,1.63594 -0.390957,0.03134 -0.786834,0.003 -1.179933,0.003 -1.032371,-0.160381 -1.453487,-0.166772 -2.393653,-0.557558 -0.165428,-0.06878 0.658388,0.220942 0.554022,0.106515 -0.261833,-0.285459 -0.741867,-0.431384 -1.074888,-0.675545 -0.859836,-0.630079 -1.013476,-0.898071 -1.655658,-1.639958 -0.784317,-1.121326 -1.179362,-2.355374 -0.799583,-3.602263 0.22566,-0.73985 0.440733,-0.910059 0.940582,-1.559891 0.232176,-0.200553 0.443138,-0.41486 0.696048,-0.6019 0.659131,-0.486954 1.698743,-1.051663 2.718342,-0.968642 0.172646,0.01521 0.329981,0.07608 0.495432,0.114122 -0.552338,-0.171945 -1.056036,-0.483789 -1.65649,-0.516048 -0.248797,-0.01217 0.301069,0.287894 0.408649,0.449004 0.146051,0.21942 0.262446,0.450405 0.348484,0.685711 0.399836,1.091746 0.31629,2.209722 0.281822,3.324717 -0.269793,3.192637 -1.203791,6.32958 -2.045519,9.463208 -0.616571,2.190761 -1.166132,4.394454 -1.312708,6.630986 -0.03237,0.451807 -0.03237,0.904369 -0.0398,1.356575 0.03237,2.199685 0.42951,4.433962 1.665274,6.467577 0.186168,0.306297 0.424725,0.594801 0.637471,0.892225 0.22569,0.22976 0.419878,0.47746 0.677608,0.689725 0.219204,0.18108 0.455224,0.362362 0.744232,0.483304 1.4909,0.623597 2.224632,1.079295 3.728838,1.022816 0.828696,-0.03106 1.280146,-0.18047 2.063738,-0.365072 1.373387,-0.431904 2.763367,-0.921845 3.886567,-1.650312 0.656704,-0.426021 0.790783,-0.605329 1.312725,-1.107105 0.794031,-0.960617 1.265775,-2.093625 0.810333,-3.203594 C 48.87045,57.47532 48.72905,57.297531 48.617536,57.111739 48.453601,56.952887 48.322083,56.77412 48.125384,56.6355 47.91576,56.487291 47.674175,56.35765 47.41243,56.260965 45.741786,55.644886 45.10666,55.18438 43.50344,55.329841 c -1.113949,0.101038 -1.594852,0.320154 -2.637347,0.644779 -2.478621,0.971754 -4.59955,2.327864 -6.98065,3.407073 -1.955305,0.886227 -2.049982,0.855853 -4.133775,1.534267 -2.075264,0.565009 -4.232606,0.806496 -6.447885,0.747878 -1.555448,-0.04112 -2.646913,-0.205414 -4.175023,-0.385768 0,0 1.303194,0.656835 1.303194,0.656835 l 0,0 c 1.514418,0.168897 2.625392,0.328582 4.16634,0.356062 2.211297,0.03957 4.358558,-0.229459 6.415824,-0.815785 0.691237,-0.234326 1.397804,-0.446505 2.073403,-0.703174 3.235142,-1.229082 6.020428,-2.997047 9.367154,-4.083889 1.121412,-0.279679 1.605624,-0.471983 2.776402,-0.5088 0.372554,-0.01219 1.06065,0.331223 1.115667,0.06667 0.06422,-0.295809 -0.709744,-0.31994 -1.021625,-0.518611 -0.407066,-0.259286 1.824393,0.82387 1.233817,0.766723 0.122876,0.175592 0.276005,0.341732 0.367704,0.526914 0.522655,1.060029 0.08028,2.173385 -0.674398,3.10687 -0.189564,0.187466 -0.361282,0.384462 -0.567604,0.562551 -1.174822,1.01463 -2.813212,1.673981 -4.511878,2.132088 -0.802842,0.160682 -1.235745,0.292461 -2.07334,0.289413 -0.318784,-0.0019 -0.975946,-0.312907 -0.949724,-0.08486 0.03237,0.283935 0.596561,0.480438 0.994165,0.472165 0.771567,-0.01519 -2.897461,-1.029511 -1.636193,-1.175466 -0.248185,-0.302195 -0.526728,-0.592799 -0.745105,-0.906528 -1.394305,-2.001014 -1.8105,-4.244639 -1.807263,-6.456855 0.02449,-0.447753 0.03237,-0.896 0.06407,-1.34327 0.176566,-2.240335 0.672762,-4.461009 1.144044,-6.67639 0.734608,-3.139805 1.666662,-6.257058 2.222258,-9.41695 0.15495,-1.082249 0.341184,-2.156555 0.128423,-3.243188 -0.02449,-0.125687 -0.254397,-1.016848 -0.513015,-1.159517 -0.771544,-0.425085 -1.671475,-0.713983 -2.507117,-1.070959 -0.171079,-0.01522 -0.340436,-0.05509 -0.513015,-0.04961 -0.98508,0.03256 -1.979234,0.671407 -2.582396,1.171387 -0.244205,0.202073 -0.448014,0.426758 -0.671991,0.640152 -0.505031,0.678437 -0.718584,0.852391 -0.94712,1.61954 -0.382164,1.28487 0.02449,2.55419 0.822657,3.712611 0.639059,0.762584 0.781189,1.023909 1.637748,1.678212 1.211597,0.925855 2.173228,1.229512 3.926046,1.897146 0.392556,0.149424 0.808834,0.268417 1.234348,0.359563 0.409446,0.08764 0.839385,0.116252 1.259048,0.174378 0.400654,-0.0091 0.805366,0.0091 1.202293,-0.03134 2.118578,-0.218812 3.793963,-1.23134 5.041579,-2.41575 0.211793,-0.231897 0.438366,-0.457495 0.635065,-0.696057 0.523452,-0.634036 0.926073,-1.330398 1.059448,-2.064375 0,0 -2.355323,-0.794476 -2.355323,-0.794476 z"
       id="path3553-2-5-0-4"
       style="fill:#550000;fill-opacity:1;fill-rule:nonzero;stroke:none;stroke-width:1px;stroke-linecap:butt;stroke-linejoin:miter;stroke-opacity:1" />
    <path
       d="m 18.591138,26.747002 c -0.144493,-0.734859 0.163006,-1.485207 0.60694,-2.143495 0.164555,-0.243463 0.370947,-0.470916 0.555601,-0.706372 0.245747,-0.229464 0.468045,-0.473595 0.737815,-0.688749 1.087287,-0.865932 2.562654,-1.504834 4.198551,-1.635939 0.39096,-0.03132 0.786839,-0.0031 1.179941,-0.0031 1.032378,0.160376 1.453497,0.166767 2.39367,0.557553 0.165429,0.06879 -0.658393,-0.220939 -0.554026,-0.106513 0.261835,0.28546 0.741872,0.431385 1.074896,0.675544 0.859842,0.630077 1.013483,0.898068 1.655669,1.639955 0.784323,1.121317 1.17937,2.355364 0.799589,3.602249 -0.225662,0.73985 -0.440736,0.910059 -0.940589,1.559888 -0.232177,0.20055 -0.443141,0.414854 -0.696053,0.601898 -0.659135,0.486952 -1.698755,1.051659 -2.718361,0.968639 -0.172647,-0.01519 -0.329983,-0.07606 -0.495435,-0.114124 0.552342,0.171944 1.056043,0.483788 1.656501,0.51605 0.248799,0.01215 -0.301071,-0.287896 -0.408651,-0.449006 -0.146052,-0.219417 -0.262448,-0.450405 -0.348487,-0.685709 -0.399839,-1.091739 -0.316292,-2.209711 -0.281824,-3.324705 0.269795,-3.192628 1.2038,-6.329563 2.045534,-9.463179 0.616575,-2.190755 1.16614,-4.394443 1.312717,-6.630969 0.03237,-0.451806 0.03237,-0.904365 0.0398,-1.356569 C 30.372566,7.360768 29.975423,5.1264975 28.73965,3.0928895 28.553481,2.7865934 28.314922,2.49809 28.102175,2.2006665 27.876483,1.9709073 27.682294,1.7232088 27.424562,1.5109436 27.205357,1.3298651 26.969335,1.1485837 26.680325,1.0276415 25.189414,0.40404599 24.455677,-0.05165 22.951461,0.00482885 22.122759,0.03588806 21.671306,0.18529858 20.887708,0.36989918 19.514312,0.80180176 18.124322,1.2917416 17.001114,2.0202066 16.344406,2.4462259 16.210326,2.6255339 15.68838,3.1273078 c -0.794037,0.9606147 -1.265784,2.0936186 -0.810339,3.2035843 0.08027,0.1938601 0.221672,0.3716486 0.333187,0.5574402 0.163936,0.1588522 0.295455,0.3376181 0.492155,0.4762379 0.209625,0.1482088 0.451212,0.2778493 0.712959,0.3745335 1.670656,0.6160775 2.305786,1.0765822 3.909017,0.9311213 1.113957,-0.1010373 1.594864,-0.3201531 2.637366,-0.6447766 2.478638,-0.9717514 4.599582,-2.3278575 6.980699,-3.4070628 1.955318,-0.8862243 2.049996,-0.8558506 4.133804,-1.5342621 2.075278,-0.5650075 4.232635,-0.8064934 6.44793,-0.7478763 1.555459,0.041123 2.646931,0.2054141 4.175052,0.3857674 0,0 -1.303203,-0.6568337 -1.303203,-0.6568337 l 0,0 C 41.882578,1.8962846 40.771597,1.7366001 39.230638,1.70912 37.019325,1.6695483 34.872049,1.9385787 32.814769,2.524903 32.123527,2.7592286 31.416955,2.9714063 30.741351,3.2280747 27.506187,4.4571526 24.720881,6.2251131 21.374132,7.3119516 20.252712,7.5916298 19.768496,7.7839327 18.59771,7.82075 18.225154,7.8329398 17.537053,7.4895278 17.482035,7.7540828 17.417815,8.0498906 18.191784,8.0740224 18.503668,8.2726924 18.910736,8.5319791 16.679262,7.4488263 17.269842,7.5059733 17.146965,7.3303811 16.993835,7.1642424 16.902135,6.9790611 16.379477,5.9190343 16.821855,4.8056824 17.576538,3.8721999 c 0.189565,-0.1874651 0.361285,-0.3844603 0.567608,-0.5625495 1.17483,-1.0146265 2.813232,-1.6739755 4.51191,-2.1320812 0.802847,-0.1606812 1.235753,-0.29245968 2.073354,-0.28941192 0.318786,0.00194 0.975953,0.31290562 0.949731,0.084858 -0.03237,-0.28393412 -0.596565,-0.48043677 -0.994172,-0.47216332 -0.771572,0.015195 2.897481,1.02950724 1.636204,1.17546184 0.248187,0.3021944 0.526732,0.5927971 0.745111,0.906525 1.394314,2.0010088 1.810512,4.2446261 1.807275,6.4568351 -0.02449,0.4477522 -0.03237,0.8959981 -0.06407,1.3432651 -0.176567,2.240327 -0.672767,4.460997 -1.144052,6.676372 -0.734613,3.139792 -1.666674,6.257036 -2.222274,9.416919 -0.154951,1.082249 -0.341186,2.156549 -0.128424,3.243179 0.02449,0.125687 0.254399,1.016845 0.513019,1.159516 0.771549,0.425079 1.671487,0.713976 2.507134,1.070956 0.171081,0.0152 0.340439,0.05511 0.513019,0.04961 0.985087,-0.03258 1.979248,-0.671408 2.582414,-1.171386 0.244207,-0.202074 0.448017,-0.426754 0.671996,-0.640148 0.505034,-0.678437 0.718589,-0.852388 0.947127,-1.61954 0.382166,-1.284863 -0.02449,-2.554179 -0.822663,-3.712595 -0.639064,-0.762585 -0.781195,-1.023907 -1.63776,-1.678208 -1.211605,-0.925853 -2.173243,-1.229509 -3.926073,-1.897139 -0.392559,-0.149424 -0.80884,-0.26842 -1.234357,-0.359566 -0.409449,-0.08768 -0.839391,-0.116248 -1.259057,-0.174378 -0.400656,0.0094 -0.805371,-0.0094 -1.202301,0.03132 -2.118593,0.218817 -3.79399,1.231338 -5.041614,2.415746 -0.211795,0.231895 -0.438369,0.457493 -0.63507,0.696056 -0.523456,0.634034 -0.926079,1.330396 -1.059455,2.06437 0,0 2.355339,0.79447 2.355339,0.79447 z"
       id="path3553-2-5-0-9"
       style="fill:#550000;fill-opacity:1;fill-rule:nonzero;stroke:none;stroke-width:1px;stroke-linecap:butt;stroke-linejoin:miter;stroke-opacity:1" />
    <path
       d="m 45.237862,26.747001 c 0.144493,-0.734859 -0.163006,-1.485207 -0.60694,-2.143494 -0.164555,-0.243464 -0.370947,-0.470917 -0.555601,-0.706373 -0.245747,-0.229464 -0.468045,-0.473595 -0.737814,-0.688749 -1.087288,-0.865932 -2.562654,-1.504833 -4.198552,-1.635938 -0.39096,-0.03132 -0.786839,-0.0031 -1.179941,-0.0031 -1.032378,0.160376 -1.453497,0.166767 -2.39367,0.557553 -0.165429,0.06879 0.658393,-0.220939 0.554026,-0.106513 -0.261835,0.285459 -0.741872,0.431384 -1.074896,0.675543 -0.859842,0.630077 -1.013483,0.898068 -1.655669,1.639955 -0.784323,1.121317 -1.17937,2.355364 -0.799589,3.602249 0.225662,0.73985 0.440736,0.910059 0.940589,1.559888 0.232177,0.20055 0.443141,0.414854 0.696053,0.601898 0.659135,0.486952 1.698755,1.051659 2.718361,0.968639 0.172647,-0.01519 0.329983,-0.07606 0.495435,-0.114124 -0.552342,0.171944 -1.056043,0.483788 -1.656501,0.51605 -0.248799,0.01215 0.301071,-0.287896 0.408652,-0.449006 0.146052,-0.219417 0.262447,-0.450405 0.348486,-0.685709 0.399839,-1.091738 0.316292,-2.209711 0.281824,-3.324705 -0.269795,-3.192628 -1.2038,-6.329562 -2.045533,-9.463178 -0.616576,-2.190755 -1.166141,-4.394443 -1.312718,-6.630969 -0.03237,-0.451806 -0.03237,-0.904365 -0.0398,-1.356569 0.03237,-2.1996788 0.429513,-4.433949 1.665286,-6.4675572 0.186169,-0.3062961 0.424728,-0.5947994 0.637475,-0.892223 0.225692,-0.2297593 0.419881,-0.4774577 0.677613,-0.6897228 0.219206,-0.1810786 0.455227,-0.3623599 0.744237,-0.4833021 1.490911,-0.62359556 2.224648,-1.07929154 3.728864,-1.02281268 0.828702,0.03105905 1.280155,0.18046972 2.063753,0.36507032 1.373396,0.4319026 2.763386,0.92184226 3.886594,1.65030736 0.656709,0.4260193 0.790789,0.6053274 1.312734,1.1071012 0.794037,0.9606146 1.265784,2.0936185 0.810339,3.2035844 -0.08027,0.1938603 -0.221672,0.3716486 -0.333186,0.5574402 -0.163937,0.1589015 -0.295456,0.3376675 -0.492156,0.476287 -0.209625,0.148209 -0.451212,0.2778494 -0.712959,0.3745336 C 45.742002,8.3551625 45.106872,8.815667 43.503641,8.6702063 42.389684,8.5691877 41.908778,8.3500719 40.866275,8.0254484 38.387637,7.053697 36.266693,5.6975909 33.885576,4.6183856 31.930258,3.7321613 31.83558,3.762535 29.751772,3.0841235 27.676494,2.519116 25.519137,2.2776301 23.303842,2.3362472 c -1.555459,0.041124 -2.646931,0.2054141 -4.175052,0.3857674 0,0 1.303203,-0.6568337 1.303203,-0.6568337 l 0,0 c 1.514429,-0.1688963 2.625411,-0.3285808 4.166369,-0.3560609 2.211313,-0.039571 4.358589,0.2294587 6.415869,0.815783 0.691242,0.2343256 1.397814,0.4465033 2.073418,0.7031717 3.235164,1.2290779 6.02047,2.9970384 9.367219,4.0838769 1.12142,0.2796782 1.605636,0.4719811 2.776422,0.5087984 0.372556,0.01219 1.060657,-0.3312222 1.115675,-0.06667 0.06422,0.2958083 -0.709749,0.31994 -1.021633,0.51861 C 44.918264,8.5319776 47.149738,7.4488249 46.559158,7.5059718 46.682035,7.3303801 46.835165,7.1642413 46.926865,6.97906 47.449523,5.9190336 47.007145,4.8056816 46.252462,3.8721991 46.062897,3.6847344 45.891177,3.4877392 45.684854,3.30965 44.510024,2.2950235 42.871622,1.6356745 41.172944,1.1775688 40.370097,1.0168876 39.937191,0.88510912 39.09959,0.88815688 c -0.318786,0.00194 -0.975953,0.31290562 -0.949731,0.084858 0.03237,-0.2839341 0.596565,-0.48043673 0.994172,-0.47216329 0.771573,0.015195 -2.897481,1.02950741 -1.636204,1.17546181 -0.248187,0.3021944 -0.526732,0.5927971 -0.74511,0.906525 -1.394315,2.0010089 -1.810513,4.2446262 -1.807276,6.4568351 0.02449,0.4477523 0.03237,0.8959981 0.06407,1.3432645 0.176568,2.240328 0.672767,4.460998 1.144052,6.676373 0.734613,3.139791 1.666674,6.257034 2.222274,9.416918 0.154951,1.082249 0.341186,2.156548 0.128424,3.243178 -0.02449,0.125688 -0.254399,1.016845 -0.513019,1.159517 -0.771549,0.425079 -1.671487,0.713976 -2.507134,1.070957 -0.171081,0.0152 -0.340439,0.05511 -0.513019,0.04961 -0.985087,-0.03258 -1.979248,-0.671408 -2.582414,-1.171388 -0.244207,-0.202073 -0.448017,-0.426754 -0.671996,-0.640147 -0.505034,-0.678438 -0.718589,-0.852388 -0.947126,-1.619541 -0.382167,-1.284862 0.02449,-2.554178 0.822662,-3.712595 0.639064,-0.762585 0.781195,-1.023907 1.63776,-1.678207 1.211605,-0.925853 2.173243,-1.229509 3.926073,-1.897137 0.392559,-0.149425 0.80884,-0.268421 1.234357,-0.359567 0.409449,-0.08768 0.839391,-0.116247 1.259057,-0.174378 0.400657,0.0094 0.805371,-0.0094 1.202301,0.03132 2.118593,0.218817 3.79399,1.231338 5.041615,2.415745 0.211794,0.231894 0.438369,0.457492 0.635069,0.696056 0.523456,0.634033 0.926079,1.330396 1.059455,2.06437 0,0 -2.355339,0.794469 -2.355339,0.794469 z"
       id="path3553-2-5-0-4-6"
       style="fill:#550000;fill-opacity:1;fill-rule:nonzero;stroke:none;stroke-width:1px;stroke-linecap:butt;stroke-linejoin:miter;stroke-opacity:1" />
    <path
       id="path5450"
       d="m 31.678495,33.385176 c -0.69407,-0.669132 -1.710907,-1.228804 -2.456431,-1.352029 l -0.187826,-0.03104 0.203356,-0.03738 c 0.309903,-0.05697 0.663409,-0.181274 1.020408,-0.358814 0.522768,-0.259977 0.968187,-0.570532 1.433297,-0.999323 l 0.226381,-0.208703 0.194334,0.184921 c 0.750961,0.714587 1.684398,1.233995 2.482643,1.381458 l 0.206921,0.03823 -0.176777,0.02793 c -0.776179,0.12264 -1.852277,0.722133 -2.529563,1.409217 -0.09085,0.09216 -0.170396,0.167146 -0.176777,0.166634 -0.0064,-5.1e-4 -0.114366,-0.100002 -0.239966,-0.221091 z"
       style="color:#000000;clip-rule:nonzero;display:inline;overflow:visible;visibility:visible;opacity:1;isolation:auto;mix-blend-mode:normal;color-interpolation:sRGB;color-interpolation-filters:linearRGB;solid-color:#000000;solid-opacity:1;fill:#ff0000;fill-opacity:1;fill-rule:nonzero;stroke-width:1;stroke-linecap:butt;stroke-linejoin:miter;stroke-miterlimit:4;stroke-dasharray:none;stroke-dashoffset:0;stroke-opacity:1;color-rendering:auto;image-rendering:auto;shape-rendering:auto;text-rendering:auto;enable-background:accumulate" />
  </g>
</svg>
